<svg width="800" height="600" viewBox="0 0 800 600" fill="none" xmlns="http://www.w3.org/2000/svg">
  <rect width="800" height="600" fill="#F0FDF4"/>
  
  <!-- Video Player Mockup -->
  <rect x="60" y="60" width="680" height="380" rx="32" fill="#064E3B"/>
  <rect x="60" y="60" width="680" height="380" rx="32" fill="url(#paint0_linear)" opacity="0.4"/>
  <circle cx="400" cy="250" r="40" fill="white" fill-opacity="0.2" stroke="white" stroke-width="2"/>
  <path d="M390 235L420 250L390 265V235Z" fill="white"/>
  
  <!-- Progress Bar -->
  <rect x="100" y="400" width="600" height="6" rx="3" fill="white" fill-opacity="0.1"/>
  <rect x="100" y="400" width="240" height="6" rx="3" fill="#10B981"/>
  
  <!-- Content Cards Below -->
  <rect x="60" y="470" width="200" height="80" rx="16" fill="white" shadow="0 10px 30px rgba(0,0,0,0.03)"/>
  <rect x="280" y="470" width="200" height="80" rx="16" fill="white" shadow="0 10px 30px rgba(0,0,0,0.03)"/>
  <rect x="500" y="470" width="200" height="80" rx="16" fill="white" shadow="0 10px 30px rgba(0,0,0,0.03)"/>
  
  <rect x="80" y="490" width="100" height="10" rx="5" fill="#D1FAE5"/>
  <rect x="80" y="515" width="140" height="6" rx="3" fill="#ECFDF5"/>
  
  <defs>
    <linearGradient id="paint0_linear" x1="0" y1="0" x2="800" y2="600" gradientUnits="userSpaceOnUse">
      <stop stop-color="#10B981"/>
      <stop offset="1" stop-color="#059669"/>
    </linearGradient>
  </defs>
</svg>