<svg width="800" height="600" viewBox="0 0 800 600" fill="none" xmlns="http://www.w3.org/2000/svg">
  <rect width="800" height="600" fill="#F8FAFC"/>
  
  <!-- Grid Map Mockup -->
  <rect x="40" y="40" width="720" height="520" rx="32" fill="#E2E8F0" opacity="0.3"/>
  <g opacity="0.2">
    <path d="M40 100H760M40 200H760M40 300H760M40 400H760M40 500H760" stroke="#1E3A8A" stroke-width="1"/>
    <path d="M140 40V560M240 40V560M340 40V560M440 40V560M540 40V560M640 40V560" stroke="#1E3A8A" stroke-width="1"/>
  </g>
  
  <!-- Property Card Mockup -->
  <rect x="100" y="100" width="260" height="340" rx="24" fill="white" shadow="0 20px 60px rgba(30,58,138,0.1)"/>
  <rect x="120" y="120" width="220" height="160" rx="16" fill="#F1F5F9"/>
  <rect x="130" y="295" width="120" height="12" rx="4" fill="#1E3A8A" fill-opacity="0.8"/>
  <rect x="130" y="320" width="180" height="8" rx="4" fill="#64748B" fill-opacity="0.3"/>
  <rect x="130" y="340" width="140" height="8" rx="4" fill="#64748B" fill-opacity="0.3"/>
  
  <!-- Search Bar Floating -->
  <rect x="400" y="60" width="320" height="60" rx="30" fill="white" shadow="0 10px 30px rgba(0,0,0,0.05)"/>
  <circle cx="435" cy="90" r="15" fill="#1E3A8A" fill-opacity="0.1"/>
  <rect x="465" y="85" width="140" height="10" rx="5" fill="#E2E8F0"/>
  
  <!-- Marker -->
  <circle cx="550" cy="350" r="40" fill="#1E3A8A" fill-opacity="0.05"/>
  <circle cx="550" cy="350" r="10" fill="#1E3A8A"/>
</svg>