<svg width="800" height="600" viewBox="0 0 800 600" fill="none" xmlns="http://www.w3.org/2000/svg">
  <defs>
    <linearGradient id="sky" x1="0" y1="0" x2="0" y2="600" gradientUnits="userSpaceOnUse">
      <stop stop-color="#8B5CF6"/>
      <stop offset="1" stop-color="#6366F1"/>
    </linearGradient>
  </defs>
  <rect width="800" height="600" fill="url(#sky)"/>
  
  <!-- Polaroid Mockups -->
  <g transform="rotate(-10 200 250)">
    <rect x="100" y="100" width="200" height="260" fill="white" shadow="0 20px 40px rgba(0,0,0,0.2)"/>
    <rect x="115" y="115" width="170" height="170" fill="#F1F5F9"/>
    <rect x="130" y="300" width="100" height="10" rx="5" fill="#E2E8F0"/>
  </g>
  
  <g transform="rotate(5 500 250)">
    <rect x="400" y="150" width="220" height="280" fill="white" shadow="0 20px 40px rgba(0,0,0,0.2)"/>
    <rect x="415" y="165" width="190" height="190" fill="#F1F5F9"/>
    <rect x="430" y="375" width="120" height="10" rx="5" fill="#E2E8F0"/>
  </g>
  
  <!-- Map Lines -->
  <path d="M100 500Q400 400 700 500" stroke="white" stroke-width="2" stroke-dasharray="10 10" opacity="0.5"/>
  <circle cx="100" cy="500" r="10" fill="white" fill-opacity="0.3"/>
  <circle cx="700" cy="500" r="10" fill="white" fill-opacity="0.3"/>
  
  <!-- Compass Graphic -->
  <circle cx="700" cy="100" r="50" stroke="white" stroke-width="1" opacity="0.3"/>
  <path d="M700 60V140M660 100H740" stroke="white" stroke-width="1" opacity="0.3"/>
  <path d="M700 75L715 100L700 125L685 100L700 75Z" fill="white"/>
</svg>